<svg width="23" height="23" viewBox="0 0 23 23" fill="none" xmlns="http://www.w3.org/2000/svg">
<path fill-rule="evenodd" clip-rule="evenodd" d="M11.4208 21.1717C16.9155 21.1717 21.37 16.7173 21.37 11.2226C21.37 5.72788 16.9155 1.27343 11.4208 1.27343C5.92612 1.27343 1.47167 5.72788 1.47167 11.2226C1.47167 16.7173 5.92612 21.1717 11.4208 21.1717ZM11.4208 22.2772C17.5263 22.2772 22.4754 17.328 22.4754 11.2226C22.4754 5.11712 17.5263 0.167969 11.4208 0.167969C5.31536 0.167969 0.366211 5.11712 0.366211 11.2226C0.366211 17.328 5.31536 22.2772 11.4208 22.2772Z" fill="white"/>
<path d="M4.78809 17.6507C4.78809 17.0797 5.21479 16.5972 5.783 16.5342C10.0473 16.0622 12.8137 16.1047 17.0686 16.5447C17.2811 16.567 17.4825 16.6507 17.6482 16.7856C17.8139 16.9205 17.9367 17.1007 18.0016 17.3042C18.0666 17.5077 18.0709 17.7258 18.0139 17.9317C17.957 18.1376 17.8413 18.3225 17.6811 18.4638C12.6595 22.8408 9.78974 22.7806 5.14183 18.4682C4.91521 18.2582 4.78809 17.9597 4.78809 17.6513V17.6507Z" fill="white"/>
<path fill-rule="evenodd" clip-rule="evenodd" d="M17.0115 17.0944C12.7903 16.6577 10.0637 16.6168 5.843 17.0839C5.5589 17.1154 5.34057 17.358 5.34057 17.6515C5.34057 17.8096 5.40635 17.9594 5.51744 18.0633C7.82122 20.2002 9.56675 21.1658 11.273 21.1719C12.9854 21.178 14.8249 20.2201 17.3177 18.0478C17.3969 17.9774 17.4539 17.8854 17.4818 17.7831C17.5097 17.6808 17.5073 17.5726 17.4748 17.4717C17.4424 17.3708 17.3813 17.2814 17.2991 17.2145C17.2168 17.1476 17.1169 17.1061 17.0115 17.0949V17.0944ZM5.72195 15.9851C10.031 15.508 12.8378 15.5512 17.1259 15.995C17.4455 16.0284 17.7485 16.1542 17.9977 16.3571C18.247 16.56 18.4316 16.8312 18.5291 17.1374C18.6266 17.4437 18.6327 17.7717 18.5466 18.0813C18.4605 18.391 18.2861 18.6688 18.0445 18.8808C15.5158 21.0851 13.4099 22.2856 11.2697 22.2773C9.12346 22.2696 7.11041 21.0486 4.76628 18.8736C4.59845 18.7173 4.46466 18.528 4.37326 18.3177C4.28187 18.1073 4.23484 17.8803 4.23511 17.651C4.2343 17.2389 4.38557 16.841 4.65992 16.5335C4.93427 16.226 5.31243 16.0305 5.72195 15.9845V15.9851Z" fill="white"/>
<path d="M15.8425 9.01167C15.8425 10.1844 15.3766 11.3091 14.5473 12.1384C13.7181 12.9676 12.5934 13.4335 11.4206 13.4335C10.2479 13.4335 9.12316 12.9676 8.29391 12.1384C7.46465 11.3091 6.99878 10.1844 6.99878 9.01167C6.99878 7.83892 7.46465 6.71421 8.29391 5.88496C9.12316 5.0557 10.2479 4.58983 11.4206 4.58983C12.5934 4.58983 13.7181 5.0557 14.5473 5.88496C15.3766 6.71421 15.8425 7.83892 15.8425 9.01167V9.01167Z" fill="white"/>
<path fill-rule="evenodd" clip-rule="evenodd" d="M11.4206 12.3281C12.3002 12.3281 13.1437 11.9786 13.7657 11.3567C14.3876 10.7348 14.737 9.89123 14.737 9.01167C14.737 8.13211 14.3876 7.28858 13.7657 6.66663C13.1437 6.04469 12.3002 5.69529 11.4206 5.69529C10.5411 5.69529 9.69753 6.04469 9.07558 6.66663C8.45364 7.28858 8.10424 8.13211 8.10424 9.01167C8.10424 9.89123 8.45364 10.7348 9.07558 11.3567C9.69753 11.9786 10.5411 12.3281 11.4206 12.3281V12.3281ZM11.4206 13.4335C12.5934 13.4335 13.7181 12.9676 14.5473 12.1384C15.3766 11.3091 15.8425 10.1844 15.8425 9.01167C15.8425 7.83892 15.3766 6.71421 14.5473 5.88496C13.7181 5.0557 12.5934 4.58983 11.4206 4.58983C10.2479 4.58983 9.12316 5.0557 8.29391 5.88496C7.46465 6.71421 6.99878 7.83892 6.99878 9.01167C6.99878 10.1844 7.46465 11.3091 8.29391 12.1384C9.12316 12.9676 10.2479 13.4335 11.4206 13.4335V13.4335Z" fill="white"/>
</svg>
